<svg width="19" height="18" viewBox="0 0 19 18" fill="none" xmlns="http://www.w3.org/2000/svg">
<path opacity="0.8" d="M13.775 3.34884C14.2789 3.34884 14.7622 3.17243 15.1185 2.85841C15.4748 2.5444 15.675 2.1185 15.675 1.67442C15.675 1.23034 15.4748 0.80444 15.1185 0.490426C14.7622 0.176411 14.2789 0 13.775 0C13.2711 0 12.7878 0.176411 12.4315 0.490426C12.0752 0.80444 11.875 1.23034 11.875 1.67442C11.875 2.1185 12.0752 2.5444 12.4315 2.85841C12.7878 3.17243 13.2711 3.34884 13.775 3.34884ZM10.355 14.986L11.305 11.3023L13.3 12.9767V18H15.2V11.7209L13.205 10.0465L13.775 7.53488C14.4259 8.1922 15.229 8.71908 16.1303 9.0801C17.0315 9.44112 18.01 9.62791 19 9.62791V7.95349C17.328 7.9786 15.77 7.20837 14.915 5.94419L13.965 4.60465C13.623 4.10233 13.015 3.76744 12.35 3.76744C12.065 3.76744 11.875 3.85116 11.59 3.85116L6.65 5.69302V9.62791H8.55V6.7814L10.26 6.19535L8.74 12.9767L4.085 12.1395L3.705 13.814L10.355 14.986ZM1.9 6.27907C1.64804 6.27907 1.40641 6.19086 1.22825 6.03386C1.05009 5.87685 0.95 5.6639 0.95 5.44186C0.95 5.21982 1.05009 5.00687 1.22825 4.84986C1.40641 4.69286 1.64804 4.60465 1.9 4.60465H4.75V6.27907H1.9ZM2.85 2.93023C2.59804 2.93023 2.35641 2.84203 2.17825 2.68502C2.00009 2.52801 1.9 2.31506 1.9 2.09302C1.9 1.87098 2.00009 1.65803 2.17825 1.50103C2.35641 1.34402 2.59804 1.25581 2.85 1.25581H7.6V2.93023H2.85ZM0.95 9.62791C0.698044 9.62791 0.456408 9.5397 0.278249 9.38269C0.100089 9.22569 0 9.01274 0 8.7907C0 8.56866 0.100089 8.35571 0.278249 8.1987C0.456408 8.04169 0.698044 7.95349 0.95 7.95349H4.75V9.62791H0.95Z" fill="white"/>
</svg>
